# xmcd
#
# Track frame offsets:
#	150
#	18805
#	39310
#	62842
#	81892
#	103360
#	119852
#	147020
#	165687
#	194795
#	211062
#	229260
#	246735
#	274615
#
# Disc length: 3825 seconds
#
# Revision: 1
# Processed by: cddbd v1.5.1PL0 Copyright (c) Steve Scherf et al.
# Submitted via: CDmax 2.0
#
DISCID=d20eef0e
DTITLE=Brint Anderson - Notes From Clarksdale
DYEAR=1999
DGENRE=Blues
TTITLE0=I Can't Cotton to That
TTITLE1=Hopson
TTITLE2=Death Letter
TTITLE3=Blame it on Cain
TTITLE4=Mean Someone Some Good
TTITLE5=Mess and a Half
TTITLE6=Everybody's Cryin' Mercy
TTITLE7=I'm Curious
TTITLE8=Canary Bird
TTITLE9=My Woman Done Tired of Me Lyin'
TTITLE10=Natchez Mississippi Blues
TTITLE11=She Wuz Skintillatin'
TTITLE12=A Four Year-old's Blues
TTITLE13=Last Fair Deal Gone Down
EXTD=Recorded live at Hopson Preservation Company, Highway 49, Clarksdale, M
EXTD=S on November 4, 1998\n\nJefferey Alexander: drums;\nBrint Anderson: vox
EXTD=, acoustic guitar;\nJohn Fohl: dobro, acoustic guitar, vox (4);\nJim Mar
EXTD=kway: acoustic double bass.
EXTT0=
EXTT1=
EXTT2=
EXTT3=
EXTT4=
EXTT5=
EXTT6=
EXTT7=
EXTT8=
EXTT9=
EXTT10=
EXTT11=
EXTT12=
EXTT13=
PLAYORDER=
